<svg preserveAspectRatio="none" overflow="visible" style="display: block;" width="604" height="327" viewBox="0 0 604 327" fill="none" xmlns="http://www.w3.org/2000/svg">
<g id="Clouds">
<g id="Vector" filter="url(#filter0_d_0_4)">
<path d="M174.4 233.035C190.962 229.822 202.781 255.672 219.6 256.238C235.305 256.767 256.179 251.568 262.411 235.997C269.643 217.929 245.061 197.627 250.57 178.864C255.973 160.459 296.503 158.895 290.37 140.758C282.833 118.47 243.635 133.678 229.231 115.756C219.949 104.207 242.251 82.9592 233.956 70.5672C226.455 59.3612 208.2 70.6699 196.073 66.222C185.111 62.201 178.674 47.1344 167.139 46.06C155.716 44.996 147.096 58.4166 135.812 60.6091C122.411 63.2129 107.899 54.4003 95.3154 60.0154C83.0502 65.4886 70.2991 76.7213 68.0601 90.8424C65.544 106.712 86.5146 120.097 83.2966 135.818C79.6713 153.529 45.4142 159.264 50.5171 176.546C55.8867 194.731 84.6362 185.756 100.519 194.143C108.878 198.558 117.157 204.902 121.274 213.911C129.637 232.211 118.35 265.949 136.283 272.404C153.108 278.461 156.944 236.422 174.4 233.035Z" fill="url(#paint0_linear_0_4)"/>
</g>
<path id="Vector_2" d="M391.4 282.626C407.962 279.3 419.781 306.062 436.6 306.648C452.305 307.195 473.179 301.813 479.411 285.693C486.643 266.988 462.061 245.971 467.57 226.546C472.973 207.493 513.503 205.873 507.37 187.098C499.833 164.024 460.635 179.768 446.231 161.214C436.949 149.259 459.251 127.262 450.956 114.433C443.455 102.832 425.2 114.539 413.073 109.935C402.111 105.772 395.674 90.1744 384.139 89.0621C372.716 87.9606 364.096 101.854 352.812 104.124C339.411 106.819 324.899 97.6964 312.315 103.509C300.05 109.175 287.299 120.804 285.06 135.423C282.544 151.851 303.515 165.709 300.297 181.983C296.671 200.319 262.414 206.256 267.517 224.147C272.887 242.973 301.636 233.682 317.519 242.364C325.878 246.934 334.157 253.502 338.274 262.828C346.637 281.773 335.35 316.701 353.283 323.383C370.108 329.653 373.944 286.133 391.4 282.626Z" fill="url(#paint1_linear_0_4)"/>
<path id="Vector_3" d="M487.4 245.626C503.962 242.3 515.781 269.062 532.6 269.648C548.305 270.195 569.179 264.813 575.411 248.693C582.643 229.988 558.061 208.971 563.57 189.546C568.973 170.493 609.503 168.873 603.37 150.098C595.833 127.024 556.635 142.768 542.231 124.214C532.949 112.259 555.251 90.2617 546.956 77.433C539.455 65.832 521.2 77.5393 509.073 72.9346C498.111 68.772 491.674 53.1744 480.139 52.0621C468.716 50.9606 460.096 64.8542 448.812 67.124C435.411 69.8195 420.899 60.6964 408.315 66.5094C396.05 72.1754 383.299 83.804 381.06 98.4228C378.544 114.851 399.515 128.709 396.297 144.983C392.671 163.319 358.414 169.256 363.517 187.147C368.887 205.973 397.636 196.682 413.519 205.364C421.878 209.934 430.157 216.502 434.274 225.828C442.637 244.773 431.35 279.701 449.283 286.383C466.108 292.653 469.944 249.133 487.4 245.626Z" fill="url(#paint2_linear_0_4)"/>
<path id="Vector_4" d="M286.848 275.605C298.943 273.001 307.575 293.955 319.857 294.413C331.327 294.842 346.57 290.628 351.122 278.007C356.403 263.361 338.452 246.905 342.474 231.696C346.42 216.778 376.018 215.509 371.54 200.809C366.036 182.742 337.41 195.069 326.89 180.542C320.112 171.181 336.399 153.958 330.341 143.914C324.863 134.83 311.532 143.997 302.676 140.391C294.67 137.132 289.97 124.92 281.546 124.049C273.203 123.186 266.908 134.065 258.667 135.842C248.881 137.952 238.283 130.809 229.093 135.361C220.136 139.797 210.824 148.902 209.189 160.348C207.352 173.211 222.666 184.061 220.316 196.804C217.669 211.16 192.651 215.809 196.378 229.817C200.299 244.557 221.294 237.283 232.893 244.081C238.998 247.659 245.044 252.802 248.05 260.104C254.158 274.938 245.916 302.285 259.012 307.517C271.299 312.426 274.1 278.351 286.848 275.605Z" fill="url(#paint3_linear_0_4)"/>
</g>
<defs>
<filter id="filter0_d_0_4" x="5.36585e-08" y="-1.96185e-07" width="341" height="327" filterUnits="userSpaceOnUse" color-interpolation-filters="sRGB">
<feFlood flood-opacity="0" result="BackgroundImageFix"/>
<feColorMatrix in="SourceAlpha" type="matrix" values="0 0 0 0 0 0 0 0 0 0 0 0 0 0 0 0 0 0 127 0" result="hardAlpha"/>
<feOffset dy="4"/>
<feGaussianBlur stdDeviation="25"/>
<feComposite in2="hardAlpha" operator="out"/>
<feColorMatrix type="matrix" values="0 0 0 0 0 0 0 0 0 0 0 0 0 0 0 0 0 0 0.5 0"/>
<feBlend mode="normal" in2="BackgroundImageFix" result="effect1_dropShadow_0_4"/>
<feBlend mode="normal" in="SourceGraphic" in2="effect1_dropShadow_0_4" result="shape"/>
</filter>
<linearGradient id="paint0_linear_0_4" x1="170.5" y1="46" x2="170.5" y2="273" gradientUnits="userSpaceOnUse">
<stop stop-color="#17120E"/>
<stop offset="0.5" stop-color="#030405"/>
<stop offset="1" stop-color="#040406"/>
</linearGradient>
<linearGradient id="paint1_linear_0_4" x1="387.5" y1="89" x2="387.5" y2="324" gradientUnits="userSpaceOnUse">
<stop stop-color="#17120E"/>
<stop offset="0.5" stop-color="#030405"/>
<stop offset="1" stop-color="#040406"/>
</linearGradient>
<linearGradient id="paint2_linear_0_4" x1="483.5" y1="52" x2="483.5" y2="287" gradientUnits="userSpaceOnUse">
<stop stop-color="#17120E"/>
<stop offset="0.5" stop-color="#030405"/>
<stop offset="1" stop-color="#040406"/>
</linearGradient>
<linearGradient id="paint3_linear_0_4" x1="284" y1="124" x2="284" y2="308" gradientUnits="userSpaceOnUse">
<stop stop-color="#17120E"/>
<stop offset="0.5" stop-color="#030405"/>
<stop offset="1" stop-color="#040406"/>
</linearGradient>
</defs>
</svg>
